<svg width="52" height="59" viewBox="0 0 52 59" fill="none" xmlns="http://www.w3.org/2000/svg">
<path opacity="0.4" d="M39 6.5H42.25C48.75 6.5 52 9.75 52 16.25V48.75C52 55.25 48.75 58.5 42.25 58.5H9.75C3.25 58.5 0 55.25 0 48.75V16.25C0 9.75 3.25 6.5 9.75 6.5H13" fill="#00A98A"/>
<path d="M39 4.875V8.125C39 11.375 37.375 13 34.125 13H17.875C14.625 13 13 11.375 13 8.125V4.875C13 1.625 14.625 0 17.875 0H34.125C37.375 0 39 1.625 39 4.875Z" fill="#00A98A"/>
<path d="M39.0976 43.7774L34.0599 38.7433C35.2884 36.8681 36.0198 34.6353 36.0198 32.2336C36.0198 25.6621 30.6735 20.3157 24.1052 20.3157C17.5337 20.3157 12.1875 25.6621 12.1875 32.2336C12.1875 38.8051 17.5337 44.1513 24.1052 44.1513C26.5102 44.1513 28.7395 43.4232 30.6147 42.1947L35.6524 47.2289C36.1269 47.7034 36.751 47.944 37.375 47.944C37.999 47.944 38.6231 47.7067 39.0976 47.2289C40.0498 46.2702 40.0498 44.7264 39.0976 43.7774ZM17.0625 32.2302C17.0625 28.3465 20.2215 25.1875 24.1052 25.1875C27.9857 25.1875 31.1448 28.3465 31.1448 32.2302C31.1448 36.114 27.9857 39.2729 24.1052 39.2729C20.2215 39.2697 17.0625 36.1107 17.0625 32.2302Z" fill="#00A98A"/>
</svg>
