<svg width="52" height="59" viewBox="0 0 52 59" fill="none" xmlns="http://www.w3.org/2000/svg">
<path opacity="0.4" d="M39 6.5H42.25C48.75 6.5 52 9.75 52 16.25V48.75C52 55.25 48.75 58.5 42.25 58.5H9.75C3.25 58.5 0 55.25 0 48.75V16.25C0 9.75 3.25 6.5 9.75 6.5H13" fill="#00A98A"/>
<path d="M39 4.875V8.125C39 11.375 37.375 13 34.125 13H17.875C14.625 13 13 11.375 13 8.125V4.875C13 1.625 14.625 0 17.875 0H34.125C37.375 0 39 1.625 39 4.875Z" fill="#00A98A"/>
<path d="M23.2927 41.4375C22.6687 41.4375 22.0446 41.2004 21.5701 40.7226L16.1524 35.3047C15.2002 34.3524 15.2002 32.8088 16.1524 31.8565C17.1047 30.9043 18.6485 30.9043 19.6008 31.8565L23.2959 35.5485L32.4056 26.4388C33.3578 25.4865 34.9017 25.4865 35.854 26.4388C36.8062 27.391 36.8062 28.9347 35.854 29.887L25.0217 40.7192C24.5407 41.2002 23.9167 41.4375 23.2927 41.4375Z" fill="#00A98A"/>
</svg>
