<svg width="36" height="36" viewBox="0 0 36 36" fill="none" xmlns="http://www.w3.org/2000/svg">
<path d="M22.5 3H9C8.20435 3 7.44129 3.31607 6.87868 3.87868C6.31607 4.44129 6 5.20435 6 6V30C6 30.7957 6.31607 31.5587 6.87868 32.1213C7.44129 32.6839 8.20435 33 9 33H27C27.7956 33 28.5587 32.6839 29.1213 32.1213C29.6839 31.5587 30 30.7957 30 30V10.5L22.5 3Z" stroke="url(#paint0_linear_6798_7452)" stroke-width="1.66667" stroke-linecap="round" stroke-linejoin="round"/>
<path d="M21 3V9C21 9.79565 21.3161 10.5587 21.8787 11.1213C22.4413 11.6839 23.2044 12 24 12H30" stroke="url(#paint1_linear_6798_7452)" stroke-width="1.66667" stroke-linecap="round" stroke-linejoin="round"/>
<path d="M15 13.5H12" stroke="url(#paint2_linear_6798_7452)" stroke-width="1.66667" stroke-linecap="round" stroke-linejoin="round"/>
<path d="M24 19.5H12" stroke="url(#paint3_linear_6798_7452)" stroke-width="1.66667" stroke-linecap="round" stroke-linejoin="round"/>
<path d="M24 25.5H12" stroke="url(#paint4_linear_6798_7452)" stroke-width="1.66667" stroke-linecap="round" stroke-linejoin="round"/>
<defs>
<linearGradient id="paint0_linear_6798_7452" x1="30" y1="3" x2="2.52747" y2="6.61577" gradientUnits="userSpaceOnUse">
<stop stop-color="#31E4C4"/>
<stop offset="1" stop-color="#2084D0"/>
</linearGradient>
<linearGradient id="paint1_linear_6798_7452" x1="30" y1="3" x2="19.7955" y2="4.67881" gradientUnits="userSpaceOnUse">
<stop stop-color="#31E4C4"/>
<stop offset="1" stop-color="#2084D0"/>
</linearGradient>
<linearGradient id="paint2_linear_6798_7452" x1="15" y1="13.5" x2="12.1908" y2="14.8865" gradientUnits="userSpaceOnUse">
<stop stop-color="#31E4C4"/>
<stop offset="1" stop-color="#2084D0"/>
</linearGradient>
<linearGradient id="paint3_linear_6798_7452" x1="24" y1="19.5" x2="21.1467" y2="25.1331" gradientUnits="userSpaceOnUse">
<stop stop-color="#31E4C4"/>
<stop offset="1" stop-color="#2084D0"/>
</linearGradient>
<linearGradient id="paint4_linear_6798_7452" x1="24" y1="25.5" x2="21.1467" y2="31.1331" gradientUnits="userSpaceOnUse">
<stop stop-color="#31E4C4"/>
<stop offset="1" stop-color="#2084D0"/>
</linearGradient>
</defs>
</svg>
