<svg width="59" height="46" viewBox="0 0 59 46" fill="none" xmlns="http://www.w3.org/2000/svg">
<path opacity="0.4" d="M57.1743 27.5504C58.9423 24.5929 58.9423 20.9071 57.1743 17.9496C53.1865 11.2741 44.2326 0 29.2501 0C14.2676 0 5.31375 11.2741 1.326 17.9496C-0.442 20.9071 -0.442 24.5929 1.326 27.5504C5.31375 34.2259 14.2676 45.5 29.2501 45.5C44.2326 45.5 53.1865 34.2259 57.1743 27.5504Z" fill="#00A98A"/>
<path d="M29.25 11.375C28.0605 11.375 26.9329 11.6091 25.8572 11.9471C26.4974 12.8246 26.8839 13.897 26.8839 15.067C26.8839 18.005 24.505 20.3839 21.567 20.3839C20.397 20.3839 19.3278 19.9942 18.4471 19.3572C18.1091 20.4362 17.875 21.5605 17.875 22.75C17.875 29.0322 22.9678 34.125 29.25 34.125C35.5322 34.125 40.625 29.0322 40.625 22.75C40.625 16.4678 35.5322 11.375 29.25 11.375Z" fill="#00A98A"/>
</svg>
