<svg width="40" height="65" viewBox="0 0 40 65" fill="none" xmlns="http://www.w3.org/2000/svg">
<path opacity="0.4" d="M55.25 29.25C53.4528 29.25 52 30.706 52 32.5V43.875C52 51.9383 45.4383 58.5 37.375 58.5C29.3118 58.5 22.75 51.9383 22.75 43.875V42.0032C32.4577 40.6285 39 33.111 39 22.75V8.125C39 3.1135 35.8865 0 30.875 0H29.25C27.4527 0 26 1.456 26 3.25C26 5.044 27.4527 6.5 29.25 6.5H30.875C32.331 6.5 32.5 6.66575 32.5 8.125V22.75C32.5 30.6475 27.3975 35.75 19.5 35.75C11.6025 35.75 6.5 30.6475 6.5 22.75V8.125C6.5 6.66575 6.669 6.5 8.125 6.5H9.75C11.5472 6.5 13 5.044 13 3.25C13 1.456 11.5472 0 9.75 0H8.125C3.1135 0 0 3.1135 0 8.125V22.75C0 33.111 6.54225 40.6285 16.25 42.0032V43.875C16.25 55.523 25.727 65 37.375 65C49.023 65 58.5 55.523 58.5 43.875V32.5C58.5 30.706 57.0472 29.25 55.25 29.25Z" fill="#00A98A"/>
</svg>
