<svg width="52" height="59" viewBox="0 0 52 59" fill="none" xmlns="http://www.w3.org/2000/svg">
<path opacity="0.4" d="M9.75 58.5H42.25C48.75 58.5 52 55.25 52 48.75V9.75C52 3.25 48.75 0 42.25 0H9.75C3.25 0 0 3.25 0 9.75V48.75C0 55.25 3.25 58.5 9.75 58.5Z" fill="#00A98A"/>
<path d="M39 31.6875H13C11.6545 31.6875 10.5625 30.5955 10.5625 29.25C10.5625 27.9045 11.6545 26.8125 13 26.8125H39C40.3455 26.8125 41.4375 27.9045 41.4375 29.25C41.4375 30.5955 40.3455 31.6875 39 31.6875ZM31.6875 42.25C31.6875 40.9045 30.5955 39.8125 29.25 39.8125H13C11.6545 39.8125 10.5625 40.9045 10.5625 42.25C10.5625 43.5955 11.6545 44.6875 13 44.6875H29.25C30.5955 44.6875 31.6875 43.5955 31.6875 42.25ZM41.4375 16.25C41.4375 14.9045 40.3455 13.8125 39 13.8125H13C11.6545 13.8125 10.5625 14.9045 10.5625 16.25C10.5625 17.5955 11.6545 18.6875 13 18.6875H39C40.3455 18.6875 41.4375 17.5955 41.4375 16.25Z" fill="#00A98A"/>
</svg>
